{"title":"Sex.and.the.City.2.2010.CAM.XVID.FEEL-FREE","uid":5628870,"size":1678180377,"categoryP":"video","categoryS":"movies","magnet":"?xt=urn:btih:db90c1b963440c8fcd80f7ab31975f0f07d1230b&amp;dn=Sex.and.the.City.2.2010.CAM.XVID.FEEL-FREE&amp;tr=udp%3A%2F%2Ftracker.openbittorrent.com%3A80&amp;tr=udp%3A%2F%2Fopen.demonii.com%3A1337&amp;tr=udp%3A%2F%2Ftracker.coppersurfer.tk%3A6969&amp;tr=udp%3A%2F%2Fexodus.desync.com%3A6969","seeders":0,"leechers":1,"uploader":"hiest","files":10,"time":1276587226,"description":"............................................\nGenre:Comedy/Drama/Romance\nLanguage:English\nIMDb:http://www.imdb.com/title/tt1261945/\nSource Video:Relizlab.Thanks\nSource Audio:TA/imagine.Thanks\nEncoder: Tony2\n..............................................\nGeneral\nComplete name : Sex.and.the.City.2.2010.CAM.XVID.FEEL-FREE\nFormat : AVI\nFormat/Info : Audio Video Interleave\nFile size : 1.56 GiB\nDuration : 2h 16mn\nOverall bit rate : 1 641 Kbps\n..............................................\nVideo\nID : 0\nFormat : MPEG-4 Visual\nFormat profile : Simple@L3\nFormat settings, BVOP : Yes\nFormat settings, QPel : No\nFormat settings, GMC : No warppoints\nFormat settings, Matrix : Default (H.263)\nCodec ID : XVID\nCodec ID/Hint : XviD\nDuration : 2h 16mn\nBit rate : 1 500 Kbps\nWidth : 624 pixels\nHeight : 342 pixels\nDisplay aspect ratio : 16:9\nFrame rate : 25.000 fps\nResolution : 24 bits\nScan type : Progressive\nBits/(Pixel*Frame) : 0.281\nStream size : 1.43 GiB (91%)\n...............................................\nAudio\nID : 1\nFormat : MPEG Audio\nFormat version : Version 1\nFormat profile : Layer 3\nFormat settings, Mode : Joint stereo / MS Stereo\nCodec ID : 55\nCodec ID/Hint : MP3\nDuration : 2h 16mn\nBit rate mode : Constant\nBit rate : 128 Kbps\nChannel(s) : 2 channels\nSampling rate : 44.1 KHz\nResolution : 16 bits\nStream size : 125 MiB (8%)\nAlignment : Aligned on interleaves\nInterleave, duration : 26 ms (0.65 video frame)\nWriting library : LAME3.97\n.................................................\nPlot: \nWhile wrestling with the pressures of life, love, and work in Manhattan, Carrie, Miranda,\nand Charlotte join Samantha for a trip to Morocco, where Samantha's ex is filming a new movie.\n...................................................\nScreenshots:\n &lt;a href=&quot;\nhttp://postimg.com/image/17000/16291.jpg&quot; rel=&quot;nofollow&quot; target=&quot;_NEW&quot;&gt;\nhttp://postimg.com/image/17000/16291.jpg&lt;/a&gt; &lt;a href=&quot;\nhttp://postimg.com/image/17000/16292.jpg&quot; rel=&quot;nofollow&quot; target=&quot;_NEW&quot;&gt;\nhttp://postimg.com/image/17000/16292.jpg&lt;/a&gt; &lt;a href=&quot;\nhttp://postimg.com/image/17000/16293.jpg&quot; rel=&quot;nofollow&quot; target=&quot;_NEW&quot;&gt;\nhttp://postimg.com/image/17000/16293.jpg&lt;/a&gt; &lt;a href=&quot;\nhttp://postimg.com/image/17000/16294.jpg&quot; rel=&quot;nofollow&quot; target=&quot;_NEW&quot;&gt;\nhttp://postimg.com/image/17000/16294.jpg&lt;/a&gt;\n\n.......................................................\n.......................................................\n","torrent":{"xt":"urn:btih:db90c1b963440c8fcd80f7ab31975f0f07d1230b","amp;dn":"Sex.and.the.City.2.2010.CAM.XVID.FEEL-FREE","amp;tr":["udp%3A%2F%2Ftracker.openbittorrent.com%3A80","udp%3A%2F%2Fopen.demonii.com%3A1337","udp%3A%2F%2Ftracker.coppersurfer.tk%3A6969","udp%3A%2F%2Fexodus.desync.com%3A6969"],"infoHash":"db90c1b963440c8fcd80f7ab31975f0f07d1230b","infoHashBuffer":{"type":"Buffer","data":[219,144,193,185,99,68,12,143,205,128,247,171,49,151,95,15,7,209,35,11]},"announce":[],"urlList":[]}}